<?xml version="1.0" encoding="UTF-8" standalone="no"?>
<!DOCTYPE svg PUBLIC "-//W3C//DTD SVG 1.1//EN"
 "http://www.w3.org/Graphics/SVG/1.1/DTD/svg11.dtd">
<!-- Generated by graphviz version 2.40.1 (20161225.0304)
 -->
<!-- Title: %0 Pages: 1 -->
<svg width="381pt" height="188pt"
 viewBox="0.00 0.00 380.63 188.00" xmlns="http://www.w3.org/2000/svg" xmlns:xlink="http://www.w3.org/1999/xlink">
<g id="graph0" class="graph" transform="scale(1 1) rotate(0) translate(4 184)">
<title>%0</title>
<polygon fill="#ffffff" stroke="transparent" points="-4,4 -4,-184 376.6339,-184 376.6339,4 -4,4"/>
<!-- /Users/kamyar/src/sparkle/vhdl/piso.vhdl -->
<g id="node1" class="node">
<title>/Users/kamyar/src/sparkle/vhdl/piso.vhdl</title>
<polygon fill="#d3d3d3" stroke="#069302" points="71.3517,-108 -.1175,-108 -.1175,-104 -4.1175,-104 -4.1175,-100 -.1175,-100 -.1175,-80 -4.1175,-80 -4.1175,-76 -.1175,-76 -.1175,-72 71.3517,-72 71.3517,-108"/>
<polyline fill="none" stroke="#069302" points="-.1175,-104 3.8825,-104 3.8825,-100 -.1175,-100 "/>
<polyline fill="none" stroke="#069302" points="-.1175,-80 3.8825,-80 3.8825,-76 -.1175,-76 "/>
<text text-anchor="middle" x="35.6171" y="-85.8" font-family="Helvetica,sans-Serif" font-size="14.00" fill="#000000">piso.vhdl</text>
</g>
<!-- /Users/kamyar/src/sparkle/vhdl/util_pkg.vhdl -->
<g id="node4" class="node">
<title>/Users/kamyar/src/sparkle/vhdl/util_pkg.vhdl</title>
<polygon fill="#d3d3d3" stroke="#069302" points="171.4139,-36 77.8203,-36 77.8203,-32 73.8203,-32 73.8203,-28 77.8203,-28 77.8203,-8 73.8203,-8 73.8203,-4 77.8203,-4 77.8203,0 171.4139,0 171.4139,-36"/>
<polyline fill="none" stroke="#069302" points="77.8203,-32 81.8203,-32 81.8203,-28 77.8203,-28 "/>
<polyline fill="none" stroke="#069302" points="77.8203,-8 81.8203,-8 81.8203,-4 77.8203,-4 "/>
<text text-anchor="middle" x="124.6171" y="-13.8" font-family="Helvetica,sans-Serif" font-size="14.00" fill="#000000">util_pkg.vhdl</text>
</g>
<!-- /Users/kamyar/src/sparkle/vhdl/piso.vhdl&#45;&gt;/Users/kamyar/src/sparkle/vhdl/util_pkg.vhdl -->
<g id="edge1" class="edge">
<title>/Users/kamyar/src/sparkle/vhdl/piso.vhdl&#45;&gt;/Users/kamyar/src/sparkle/vhdl/util_pkg.vhdl</title>
<path fill="none" stroke="#000000" d="M58.0756,-71.8314C69.0376,-62.9632 82.387,-52.1637 94.2436,-42.5718"/>
<polygon fill="#000000" stroke="#000000" points="96.5926,-45.1734 102.1658,-36.1628 92.19,-39.7313 96.5926,-45.1734"/>
</g>
<!-- /Users/kamyar/src/sparkle/vhdl/sipo.vhdl -->
<g id="node2" class="node">
<title>/Users/kamyar/src/sparkle/vhdl/sipo.vhdl</title>
<polygon fill="#d3d3d3" stroke="#069302" points="160.3517,-108 88.8825,-108 88.8825,-104 84.8825,-104 84.8825,-100 88.8825,-100 88.8825,-80 84.8825,-80 84.8825,-76 88.8825,-76 88.8825,-72 160.3517,-72 160.3517,-108"/>
<polyline fill="none" stroke="#069302" points="88.8825,-104 92.8825,-104 92.8825,-100 88.8825,-100 "/>
<polyline fill="none" stroke="#069302" points="88.8825,-80 92.8825,-80 92.8825,-76 88.8825,-76 "/>
<text text-anchor="middle" x="124.6171" y="-85.8" font-family="Helvetica,sans-Serif" font-size="14.00" fill="#000000">sipo.vhdl</text>
</g>
<!-- /Users/kamyar/src/sparkle/vhdl/sipo.vhdl&#45;&gt;/Users/kamyar/src/sparkle/vhdl/util_pkg.vhdl -->
<g id="edge2" class="edge">
<title>/Users/kamyar/src/sparkle/vhdl/sipo.vhdl&#45;&gt;/Users/kamyar/src/sparkle/vhdl/util_pkg.vhdl</title>
<path fill="none" stroke="#000000" d="M124.6171,-71.8314C124.6171,-64.131 124.6171,-54.9743 124.6171,-46.4166"/>
<polygon fill="#000000" stroke="#000000" points="128.1172,-46.4132 124.6171,-36.4133 121.1172,-46.4133 128.1172,-46.4132"/>
</g>
<!-- /Users/kamyar/src/sparkle/vhdl/sparkle.vhdl -->
<g id="node3" class="node">
<title>/Users/kamyar/src/sparkle/vhdl/sparkle.vhdl</title>
<polygon fill="#d3d3d3" stroke="#069302" points="201.7951,-180 111.4391,-180 111.4391,-176 107.4391,-176 107.4391,-172 111.4391,-172 111.4391,-152 107.4391,-152 107.4391,-148 111.4391,-148 111.4391,-144 201.7951,-144 201.7951,-180"/>
<polyline fill="none" stroke="#069302" points="111.4391,-176 115.4391,-176 115.4391,-172 111.4391,-172 "/>
<polyline fill="none" stroke="#069302" points="111.4391,-152 115.4391,-152 115.4391,-148 111.4391,-148 "/>
<text text-anchor="middle" x="156.6171" y="-157.8" font-family="Helvetica,sans-Serif" font-size="14.00" fill="#000000">sparkle.vhdl</text>
</g>
<!-- /Users/kamyar/src/sparkle/vhdl/sparkle.vhdl&#45;&gt;/Users/kamyar/src/sparkle/vhdl/piso.vhdl -->
<g id="edge6" class="edge">
<title>/Users/kamyar/src/sparkle/vhdl/sparkle.vhdl&#45;&gt;/Users/kamyar/src/sparkle/vhdl/piso.vhdl</title>
<path fill="none" stroke="#000000" d="M126.0837,-143.8314C110.607,-134.6221 91.6302,-123.3301 75.0608,-113.4706"/>
<polygon fill="#000000" stroke="#000000" points="76.5242,-110.2687 66.1407,-108.1628 72.9447,-116.2843 76.5242,-110.2687"/>
</g>
<!-- /Users/kamyar/src/sparkle/vhdl/sparkle.vhdl&#45;&gt;/Users/kamyar/src/sparkle/vhdl/sipo.vhdl -->
<g id="edge4" class="edge">
<title>/Users/kamyar/src/sparkle/vhdl/sparkle.vhdl&#45;&gt;/Users/kamyar/src/sparkle/vhdl/sipo.vhdl</title>
<path fill="none" stroke="#000000" d="M148.5421,-143.8314C145.0069,-135.8771 140.7811,-126.369 136.8715,-117.5723"/>
<polygon fill="#000000" stroke="#000000" points="140.0606,-116.1299 132.8008,-108.4133 133.6639,-118.9729 140.0606,-116.1299"/>
</g>
<!-- /Users/kamyar/src/sparkle/vhdl/sparkle.vhdl&#45;&gt;/Users/kamyar/src/sparkle/vhdl/util_pkg.vhdl -->
<g id="edge3" class="edge">
<title>/Users/kamyar/src/sparkle/vhdl/sparkle.vhdl&#45;&gt;/Users/kamyar/src/sparkle/vhdl/util_pkg.vhdl</title>
<path fill="none" stroke="#000000" d="M164.2338,-143.8903C170.8972,-125.3348 178.2698,-95.8992 169.6171,-72 165.9022,-61.7392 159.2919,-52.0579 152.2623,-43.8033"/>
<polygon fill="#000000" stroke="#000000" points="154.7971,-41.3886 145.4749,-36.3539 149.6227,-46.1031 154.7971,-41.3886"/>
</g>
<!-- /Users/kamyar/src/sparkle/vhdl/LWC/NIST_LWAPI_pkg.vhd -->
<g id="node5" class="node">
<title>/Users/kamyar/src/sparkle/vhdl/LWC/NIST_LWAPI_pkg.vhd</title>
<polygon fill="#d3d3d3" stroke="#069302" points="372.6507,-108 216.5835,-108 216.5835,-104 212.5835,-104 212.5835,-100 216.5835,-100 216.5835,-80 212.5835,-80 212.5835,-76 216.5835,-76 216.5835,-72 372.6507,-72 372.6507,-108"/>
<polyline fill="none" stroke="#069302" points="216.5835,-104 220.5835,-104 220.5835,-100 216.5835,-100 "/>
<polyline fill="none" stroke="#069302" points="216.5835,-80 220.5835,-80 220.5835,-76 216.5835,-76 "/>
<text text-anchor="middle" x="294.6171" y="-85.8" font-family="Helvetica,sans-Serif" font-size="14.00" fill="#000000">NIST_LWAPI_pkg.vhd</text>
</g>
<!-- /Users/kamyar/src/sparkle/vhdl/sparkle.vhdl&#45;&gt;/Users/kamyar/src/sparkle/vhdl/LWC/NIST_LWAPI_pkg.vhd -->
<g id="edge5" class="edge">
<title>/Users/kamyar/src/sparkle/vhdl/sparkle.vhdl&#45;&gt;/Users/kamyar/src/sparkle/vhdl/LWC/NIST_LWAPI_pkg.vhd</title>
<path fill="none" stroke="#000000" d="M191.4403,-143.8314C209.4182,-134.4516 231.5374,-122.9112 250.6787,-112.9244"/>
<polygon fill="#000000" stroke="#000000" points="252.5582,-115.8916 259.805,-108.1628 249.3202,-109.6855 252.5582,-115.8916"/>
</g>
<!-- /Users/kamyar/src/sparkle/vhdl/LWC_config.vhd -->
<g id="node6" class="node">
<title>/Users/kamyar/src/sparkle/vhdl/LWC_config.vhd</title>
<polygon fill="#d3d3d3" stroke="#069302" points="353.8047,-36 235.4295,-36 235.4295,-32 231.4295,-32 231.4295,-28 235.4295,-28 235.4295,-8 231.4295,-8 231.4295,-4 235.4295,-4 235.4295,0 353.8047,0 353.8047,-36"/>
<polyline fill="none" stroke="#069302" points="235.4295,-32 239.4295,-32 239.4295,-28 235.4295,-28 "/>
<polyline fill="none" stroke="#069302" points="235.4295,-8 239.4295,-8 239.4295,-4 235.4295,-4 "/>
<text text-anchor="middle" x="294.6171" y="-13.8" font-family="Helvetica,sans-Serif" font-size="14.00" fill="#000000">LWC_config.vhd</text>
</g>
<!-- /Users/kamyar/src/sparkle/vhdl/LWC/NIST_LWAPI_pkg.vhd&#45;&gt;/Users/kamyar/src/sparkle/vhdl/LWC_config.vhd -->
<g id="edge7" class="edge">
<title>/Users/kamyar/src/sparkle/vhdl/LWC/NIST_LWAPI_pkg.vhd&#45;&gt;/Users/kamyar/src/sparkle/vhdl/LWC_config.vhd</title>
<path fill="none" stroke="#000000" d="M294.6171,-71.8314C294.6171,-64.131 294.6171,-54.9743 294.6171,-46.4166"/>
<polygon fill="#000000" stroke="#000000" points="298.1172,-46.4132 294.6171,-36.4133 291.1172,-46.4133 298.1172,-46.4132"/>
</g>
</g>
</svg>
