<?xml version="1.0" encoding="UTF-8" standalone="no"?>
<!DOCTYPE svg PUBLIC "-//W3C//DTD SVG 1.1//EN"
 "http://www.w3.org/Graphics/SVG/1.1/DTD/svg11.dtd">
<!-- Generated by graphviz version 2.40.1 (20161225.0304)
 -->
<!-- Title: state transitions Pages: 1 -->
<svg width="462pt" height="270pt"
 viewBox="0.00 0.00 462.07 270.00" xmlns="http://www.w3.org/2000/svg" xmlns:xlink="http://www.w3.org/1999/xlink">
<g id="graph0" class="graph" transform="scale(1 1) rotate(0) translate(4 266)">
<title>state transitions</title>
<polygon fill="#ffffff" stroke="transparent" points="-4,4 -4,-266 458.07,-266 458.07,4 -4,4"/>
<g id="clust1" class="cluster state regular">
<title>cluster_state</title>
<path fill="none" stroke="#000000" stroke-width="2" d="M20,-8C20,-8 420,-8 420,-8 426,-8 432,-14 432,-20 432,-20 432,-242 432,-242 432,-248 426,-254 420,-254 420,-254 20,-254 20,-254 14,-254 8,-248 8,-242 8,-242 8,-20 8,-20 8,-14 14,-8 20,-8"/>
<text text-anchor="start" x="206.9944" y="-235.2" font-family="Helvetica,sans-Serif" font-size="12.00" fill="#000000">state</text>
</g>
<!-- state -->
<!-- S_INIT -->
<g id="node2" class="node state regular">
<title>S_INIT</title>
<polygon fill="#ffffff" fill-opacity="0.003922" stroke="transparent" stroke-width="2" points="261.5,-216 202.5,-216 202.5,-180 261.5,-180 261.5,-216"/>
<text text-anchor="start" x="213.8316" y="-194.2" font-family="Helvetica,sans-Serif" font-size="12.00" fill="#000000">S_INIT</text>
<path fill="none" stroke="#000000" stroke-width="2" d="M214.8333,-181C214.8333,-181 249.1667,-181 249.1667,-181 254.8333,-181 260.5,-186.6667 260.5,-192.3333 260.5,-192.3333 260.5,-203.6667 260.5,-203.6667 260.5,-209.3333 254.8333,-215 249.1667,-215 249.1667,-215 214.8333,-215 214.8333,-215 209.1667,-215 203.5,-209.3333 203.5,-203.6667 203.5,-203.6667 203.5,-192.3333 203.5,-192.3333 203.5,-186.6667 209.1667,-181 214.8333,-181"/>
</g>
<!-- S_PERMUTE -->
<g id="node3" class="node state regular">
<title>S_PERMUTE</title>
<polygon fill="#ffffff" fill-opacity="0.003922" stroke="transparent" stroke-width="2" points="168.5,-134 73.5,-134 73.5,-98 168.5,-98 168.5,-134"/>
<text text-anchor="start" x="84.8334" y="-112.2" font-family="Helvetica,sans-Serif" font-size="12.00" fill="#000000">S_PERMUTE</text>
<path fill="none" stroke="#000000" stroke-width="2" d="M85.8333,-99C85.8333,-99 156.1667,-99 156.1667,-99 161.8333,-99 167.5,-104.6667 167.5,-110.3333 167.5,-110.3333 167.5,-121.6667 167.5,-121.6667 167.5,-127.3333 161.8333,-133 156.1667,-133 156.1667,-133 85.8333,-133 85.8333,-133 80.1667,-133 74.5,-127.3333 74.5,-121.6667 74.5,-121.6667 74.5,-110.3333 74.5,-110.3333 74.5,-104.6667 80.1667,-99 85.8333,-99"/>
</g>
<!-- S_INIT&#45;&gt;S_PERMUTE -->
<g id="edge1" class="edge transition">
<title>S_INIT&#45;&gt;S_PERMUTE</title>
<path fill="none" stroke="#000000" d="M202.208,-188.0577C187.5254,-182.2308 170.1267,-173.8615 156.65,-163 149.5431,-157.2722 143.0637,-149.836 137.6363,-142.5752"/>
<polygon fill="#000000" stroke="#000000" points="140.3913,-140.4084 131.7737,-134.245 134.6669,-144.4372 140.3913,-140.4084"/>
<text text-anchor="start" x="156" y="-154" font-family="Helvetica,sans-Serif" font-size="10.00" fill="#000000">inbuf_valid = &#39;1&#39; and inbuf_ready = &#39;1&#39; &#160;&#160;</text>
</g>
<!-- S_PROCESS_TEXT -->
<g id="node4" class="node state regular">
<title>S_PROCESS_TEXT</title>
<polygon fill="#ffffff" fill-opacity="0.003922" stroke="transparent" stroke-width="2" points="164,-52 32,-52 32,-16 164,-16 164,-52"/>
<text text-anchor="start" x="42.6584" y="-30.2" font-family="Helvetica,sans-Serif" font-size="12.00" fill="#000000">S_PROCESS_TEXT</text>
<path fill="none" stroke="#000000" stroke-width="2" d="M44.3333,-17C44.3333,-17 151.6667,-17 151.6667,-17 157.3333,-17 163,-22.6667 163,-28.3333 163,-28.3333 163,-39.6667 163,-39.6667 163,-45.3333 157.3333,-51 151.6667,-51 151.6667,-51 44.3333,-51 44.3333,-51 38.6667,-51 33,-45.3333 33,-39.6667 33,-39.6667 33,-28.3333 33,-28.3333 33,-22.6667 38.6667,-17 44.3333,-17"/>
</g>
<!-- S_PERMUTE&#45;&gt;S_PROCESS_TEXT -->
<g id="edge3" class="edge transition">
<title>S_PERMUTE&#45;&gt;S_PROCESS_TEXT</title>
<path fill="none" stroke="#000000" d="M73.4246,-98.8612C66.2075,-94.1787 59.7171,-88.311 55.329,-81 50.7057,-73.2971 53.3532,-65.7343 59.1099,-59.0034"/>
<polygon fill="#000000" stroke="#000000" points="61.5664,-61.4972 66.38,-52.059 56.7313,-56.4354 61.5664,-61.4972"/>
<text text-anchor="start" x="55" y="-72" font-family="Helvetica,sans-Serif" font-size="10.00" fill="#000000">not () &#160;&#160;</text>
</g>
<!-- S_FINALIZE_TAG -->
<g id="node5" class="node state regular">
<title>S_FINALIZE_TAG</title>
<polygon fill="#ffffff" fill-opacity="0.003922" stroke="transparent" stroke-width="2" points="424,-52 304,-52 304,-16 424,-16 424,-52"/>
<text text-anchor="start" x="314.6584" y="-30.2" font-family="Helvetica,sans-Serif" font-size="12.00" fill="#000000">S_FINALIZE_TAG</text>
<path fill="none" stroke="#000000" stroke-width="2" d="M316.3333,-17C316.3333,-17 411.6667,-17 411.6667,-17 417.3333,-17 423,-22.6667 423,-28.3333 423,-28.3333 423,-39.6667 423,-39.6667 423,-45.3333 417.3333,-51 411.6667,-51 411.6667,-51 316.3333,-51 316.3333,-51 310.6667,-51 305,-45.3333 305,-39.6667 305,-39.6667 305,-28.3333 305,-28.3333 305,-22.6667 310.6667,-17 316.3333,-17"/>
</g>
<!-- S_PERMUTE&#45;&gt;S_FINALIZE_TAG -->
<g id="edge2" class="edge transition">
<title>S_PERMUTE&#45;&gt;S_FINALIZE_TAG</title>
<path fill="none" stroke="#000000" d="M168.7167,-111.8095C233.228,-105.7027 341.7771,-93.6951 355,-81 360.0735,-76.1291 362.7757,-69.34 364.1201,-62.434"/>
<polygon fill="#000000" stroke="#000000" points="367.6043,-62.769 365.2363,-52.4422 360.6476,-61.9917 367.6043,-62.769"/>
<text text-anchor="middle" x="363.3895" y="-72" font-family="Helvetica,sans-Serif" font-size="10.00" fill="#000000"> </text>
</g>
<!-- S_PROCESS_TEXT&#45;&gt;S_PERMUTE -->
<g id="edge4" class="edge transition">
<title>S_PROCESS_TEXT&#45;&gt;S_PERMUTE</title>
<path fill="none" stroke="#000000" d="M103.0902,-52.1476C106.0355,-62.6482 109.805,-76.0872 113.1253,-87.925"/>
<polygon fill="#000000" stroke="#000000" points="109.8249,-89.1184 115.8956,-97.8015 116.5648,-87.2279 109.8249,-89.1184"/>
<text text-anchor="start" x="111" y="-72" font-family="Helvetica,sans-Serif" font-size="10.00" fill="#000000">inbuf_valid = &#39;1&#39; and (inbuf_ad or outbuf_ready = &#39;1&#39;) &#160;&#160;</text>
</g>
<!-- S_FINALIZE_TAG&#45;&gt;S_INIT -->
<g id="edge5" class="edge transition">
<title>S_FINALIZE_TAG&#45;&gt;S_INIT</title>
<path fill="none" stroke="#000000" d="M369.3055,-52.4437C371.0657,-61.1693 372.1007,-71.692 370,-81 361.1153,-120.3663 360.9826,-135.9874 331,-163 326.2262,-167.3009 296.6829,-177.4804 271.101,-185.7588"/>
<polygon fill="#000000" stroke="#000000" points="270.0035,-182.4351 261.5504,-188.8222 272.1415,-189.1006 270.0035,-182.4351"/>
<text text-anchor="start" x="366" y="-113" font-family="Helvetica,sans-Serif" font-size="10.00" fill="#000000">outbuf_ready = &#39;1&#39; &#160;&#160;</text>
</g>
</g>
</svg>
